<svg version="1.1" id="Layer_1" xmlns="http://www.w3.org/2000/svg" xmlns:xlink="http://www.w3.org/1999/xlink" x="0px" y="0px"
	 width="100%" viewBox="100 100 315 315" enable-background="new 0 0 512 512" xml:space="preserve">
<!-- White and green paths that form the actual logo -->
<path fill="#FFFFFF" opacity="1.000000" stroke="none" 
	d="
M146.000031,304.928619 
	C176.447601,304.928619 206.395172,304.928619 236.671173,304.928619 
	C236.671173,312.794250 236.671173,320.537659 236.671173,328.641357 
	C191.779785,328.641357 146.636673,328.641357 101.245972,328.641357 
	C101.245972,320.967773 101.245972,313.234131 101.245972,304.928619 
	C116.007454,304.928619 130.753738,304.928619 146.000031,304.928619 
z"/>
<path fill="#65D45E" opacity="1.000000" stroke="none" 
	d="
M409.859436,306.002899 
	C409.912384,310.311035 409.993469,314.619080 410.012207,318.927368 
	C410.047455,327.033752 410.032532,327.033813 401.035248,328.652588 
	C398.507263,328.212097 396.689728,328.021240 394.872101,328.020294 
	C351.914490,327.997833 308.956848,327.995819 265.959229,327.621948 
	C263.868744,320.319275 262.061249,313.351349 263.467529,306.006592 
	C312.577301,306.005707 361.218384,306.004303 409.859436,306.002899 
z"/>
<path fill="#FFFFFF" opacity="1.000000" stroke="none" 
	d="
M341.176239,199.983353 
	C341.176239,192.397827 341.176239,184.812302 341.176239,176.846298 
	C363.995575,176.846298 386.537262,176.846298 409.607208,177.157623 
	C410.274811,177.741379 410.490295,177.924026 410.781891,178.016876 
	C410.822998,185.032455 410.864105,192.048019 410.633789,199.578323 
	C410.128632,200.251282 410.001862,200.471176 409.981995,200.752747 
	C387.634613,200.806824 365.287231,200.860901 342.395569,200.662903 
	C341.673462,200.193802 341.448456,200.051315 341.176239,199.983353 
z"/>
<path fill="#73C96F" opacity="1.000000" stroke="none" 
	d="
M100.812576,374.987122 
	C100.873596,373.638214 100.934616,372.289307 101.495956,370.497620 
	C204.008636,370.034698 306.020996,370.010620 408.033356,370.036011 
	C409.408600,370.036346 410.783752,370.661499 412.093140,371.460938 
	C411.959991,378.943146 411.892609,385.959473 411.418945,392.979126 
	C409.658234,392.967102 408.303772,392.951752 407.031677,392.581421 
	C410.817993,390.718658 411.271912,387.748352 411.022400,384.208405 
	C410.783905,380.825134 410.981537,377.411133 410.961945,373.716553 
	C410.291077,373.276459 409.645752,373.130402 408.625366,372.985840 
	C407.500214,372.988159 406.750122,372.989014 405.827698,372.753662 
	C404.098297,372.351990 402.541260,372.186523 400.516541,372.017578 
	C307.149628,372.011444 214.250397,372.001160 121.351166,372.047577 
	C118.900574,372.048798 116.450294,372.666779 113.801224,372.742554 
	C112.731636,372.986969 111.860695,373.485901 110.595383,373.979370 
	C103.495369,372.380005 103.504623,372.379395 103.965714,379.266602 
	C104.020660,380.087341 104.119720,381.000854 103.838013,381.732605 
	C102.209854,385.961761 102.778770,389.699860 105.690285,392.946960 
	C103.934555,392.625214 102.542000,392.288239 101.149445,391.951294 
	C101.149452,391.951263 100.989067,392.030884 100.974770,391.666382 
	C100.911034,390.529785 100.861588,389.757690 100.812149,388.985565 
	C100.858284,385.297791 100.904411,381.610046 100.962036,377.131775 
	C100.919884,375.889923 100.866226,375.438507 100.812576,374.987122 
z"/>
<path fill="#73C96F" opacity="1.000000" stroke="none" 
	d="
M402.999176,264.064758 
	C402.005798,263.995728 401.012451,263.866241 400.019073,263.866272 
	C302.989288,263.870819 205.959534,263.885254 108.042206,263.890045 
	C105.130119,263.857544 103.105583,263.834076 101.081047,263.810608 
	C101.081047,263.810608 101.072662,263.911713 101.075790,263.509216 
	C100.989777,262.067383 100.900635,261.028046 100.811493,259.988708 
	C100.870911,259.544281 100.930328,259.099823 101.382278,258.326874 
	C102.194061,258.001129 102.613312,258.003906 103.035095,258.411316 
	C103.287415,262.700592 106.228989,261.974030 108.614441,261.974365 
	C206.070480,261.988342 303.526520,261.979828 401.361572,261.982086 
	C402.498779,261.986237 403.256958,261.982452 404.440796,261.983154 
	C406.565643,261.978119 408.264801,261.968628 409.851135,262.193481 
	C409.162109,262.810486 408.585938,263.193237 407.600525,263.676025 
	C405.793915,263.872314 404.396545,263.968536 402.999176,264.064758 
z"/>
<path fill="#77C478" opacity="1.000000" stroke="none" 
	d="
M408.009766,263.575989 
	C408.585938,263.193237 409.162109,262.810486 409.862122,261.729675 
	C409.993469,256.703094 410.007965,252.374619 410.006989,248.046127 
	C410.005402,241.024719 410.001099,241.017288 402.740784,241.017181 
	C305.515900,241.015945 208.291031,241.016876 111.066162,241.017868 
	C109.900833,241.017883 108.735336,241.014145 107.570213,241.032150 
	C104.297447,241.082703 102.764366,242.577148 102.957771,246.015686 
	C103.163155,249.666946 103.011795,253.338257 102.706093,257.000641 
	C101.983437,256.998016 101.570908,256.995575 101.158379,256.993164 
	C101.087975,251.971680 101.017570,246.950195 100.870323,241.467987 
	C101.621895,240.608597 102.450317,240.209946 104.101784,239.880051 
	C106.754997,239.965012 108.585175,239.995209 110.415344,239.995453 
	C210.928131,240.008942 311.440918,240.019913 411.953705,240.031143 
	C411.953705,240.031143 412.024200,240.042679 412.023376,240.479675 
	C411.937469,248.581741 411.852417,256.246826 411.767334,263.911926 
	C411.767365,263.911926 411.370300,263.899445 410.817902,263.885437 
	C409.513580,263.772919 408.761688,263.674438 408.009766,263.575989 
z"/>
<path fill="#73C96F" opacity="1.000000" stroke="none" 
	d="
M409.878418,305.718994 
	C361.218384,306.004303 312.577301,306.005707 263.051270,306.015137 
	C261.445007,307.060547 260.087036,308.110168 260.106812,309.133179 
	C260.225433,315.268860 260.660828,321.398407 261.002289,327.758362 
	C263.115601,327.856323 264.557434,327.923187 265.999237,327.990021 
	C308.956848,327.995819 351.914490,327.997833 394.872101,328.020294 
	C396.689728,328.021240 398.507263,328.212097 400.636963,328.579834 
	C373.019379,328.899902 345.089691,328.966492 317.159973,329.004944 
	C299.202911,329.029663 281.245758,329.012909 263.288666,329.014679 
	C261.671753,329.014832 260.054840,329.014679 258.297760,329.014679 
	C258.297760,320.790497 258.297760,313.036896 259.134827,305.126038 
	C300.344299,304.982239 340.716736,305.008698 381.089172,304.999390 
	C390.387848,304.997253 399.686554,304.872314 408.985229,304.803864 
	C409.289276,305.014282 409.593323,305.224670 409.878418,305.718994 
z"/>
<path fill="#7FC07C" opacity="1.000000" stroke="none" 
	d="
M411.957458,139.952896 
	C348.710938,139.955597 285.474182,139.979996 222.237427,140.003357 
	C182.464478,140.018051 142.691528,140.031189 102.453842,140.117081 
	C101.989105,140.189148 101.556396,140.038635 101.280426,139.630798 
	C100.942001,138.473038 100.879555,137.723129 100.817108,136.973206 
	C100.817108,136.973206 100.986572,137.001633 101.375732,137.014709 
	C102.176430,137.018738 102.587967,137.009674 103.356033,137.160019 
	C106.955086,137.869675 110.197189,138.897858 113.440201,138.900696 
	C210.466949,138.985916 307.493805,138.977203 404.520599,138.926682 
	C406.965790,138.925400 409.410675,138.287338 411.918243,138.278198 
	C411.962097,139.059586 411.943420,139.509033 411.924713,139.958481 
	C411.924713,139.958481 411.967194,139.974152 411.957458,139.952896 
z"/>
<path fill="#7FC07C" opacity="1.000000" stroke="none" 
	d="
M101.108467,116.025055 
	C101.108467,116.025055 101.570663,115.969536 102.254799,115.974045 
	C203.111618,115.986320 303.284302,115.993179 403.457001,116.006493 
	C406.284424,116.006866 409.111847,116.076012 411.965454,116.473343 
	C411.934937,117.550758 411.878174,118.267921 411.616699,118.988586 
	C411.411926,118.992096 411.002441,118.999695 410.756714,118.989380 
	C410.510956,118.979057 410.019318,118.963867 409.931671,118.586044 
	C407.547485,117.824226 405.250977,117.440224 402.488739,117.048492 
	C305.361694,117.043251 208.700363,117.045738 111.598495,117.033974 
	C107.826859,117.344254 104.495743,117.668800 101.095497,117.669235 
	C101.053734,116.905106 101.081100,116.465080 101.108467,116.025055 
z"/>
<path fill="#7FC07C" opacity="1.000000" stroke="none" 
	d="
M101.082413,392.281067 
	C102.542000,392.288239 103.934555,392.625214 106.153076,392.958740 
	C206.969147,392.948975 306.959229,392.942688 406.949341,392.936401 
	C408.303772,392.951752 409.658234,392.967102 411.326172,393.338745 
	C410.422455,393.859650 409.205231,394.024292 407.987976,394.188934 
	C407.243256,394.145081 406.498566,394.101257 404.986053,394.049744 
	C403.139252,394.092163 402.060272,394.142242 400.981262,394.192383 
	C399.986328,394.137299 398.991394,394.033997 397.996460,394.034027 
	C303.644745,394.035492 209.293045,394.044861 114.063156,394.047058 
	C111.784340,394.091125 110.383698,394.141907 108.983055,394.192688 
	C107.921570,394.145691 106.860092,394.098694 105.030975,394.048615 
	C103.507545,394.085846 102.751747,394.126160 101.995956,394.166473 
	C101.669098,393.647919 101.342239,393.129395 101.082413,392.281067 
z"/>
<path fill="#73C96F" opacity="1.000000" stroke="none" 
	d="
M320.009277,176.733749 
	C320.342407,181.044891 320.769043,185.351501 320.977264,189.668671 
	C321.127716,192.789093 320.988037,195.923523 320.696899,199.516510 
	C320.416077,199.981339 319.994965,199.977264 319.997406,199.510986 
	C320.000305,194.218277 320.002869,189.391846 320.000702,184.565414 
	C319.997711,178.005936 319.996155,178.000381 313.622650,178.000244 
	C247.050583,177.998886 180.478531,177.999283 113.906464,177.999695 
	C103.010086,177.999756 103.010086,178.000885 103.007576,189.035126 
	C103.005653,197.476562 103.006012,197.475296 110.659836,199.641327 
	C110.798241,199.680481 110.893875,199.870712 111.001450,200.204666 
	C110.993439,200.418884 110.972839,200.847122 110.972839,200.847122 
	C109.267479,200.912094 107.562119,200.977066 105.068268,201.035187 
	C103.533699,200.985504 102.787621,200.942657 102.041542,200.899811 
	C101.686028,196.537857 101.224373,192.181152 101.008957,187.812286 
	C100.839821,184.381927 100.975014,180.936554 100.975014,176.835022 
	C104.913116,176.835022 108.489487,176.835022 112.986008,176.889389 
	C181.783676,176.961411 249.661194,176.980011 317.538727,176.985809 
	C318.362244,176.985870 319.185760,176.821411 320.009277,176.733749 
z"/>
<path fill="#60B65F" opacity="1.000000" stroke="none" 
	d="
M111.438675,200.919342 
	C110.972839,200.847122 110.993439,200.418884 111.469070,200.205429 
	C181.294785,199.987076 250.644882,199.982178 319.994965,199.977264 
	C319.994965,199.977264 320.416077,199.981339 320.626617,199.978943 
	C319.358276,200.323395 317.879578,200.972748 316.400482,200.973648 
	C248.235184,201.015137 180.069839,201.000076 111.438675,200.919342 
z"/>
<path fill="#73C96F" opacity="1.000000" stroke="none" 
	d="
M101.164627,117.993340 
	C104.495743,117.668800 107.826859,117.344254 111.497612,117.413956 
	C109.070778,118.449356 106.304306,119.090530 104.163940,119.586594 
	C103.767143,125.520737 103.383324,131.260666 102.999512,137.000610 
	C102.587967,137.009674 102.176430,137.018738 101.456558,137.043823 
	C101.081779,135.655167 101.015327,134.250473 100.957085,132.014618 
	C100.915565,129.785858 100.865837,128.388275 100.816101,126.990692 
	C100.859985,125.279251 100.903870,123.567818 100.950310,121.059753 
	C101.023460,119.506538 101.094040,118.749939 101.164627,117.993340 
z"/>
<path fill="#6CCE67" opacity="1.000000" stroke="none" 
	d="
M101.098129,257.244415 
	C101.570908,256.995575 101.983437,256.998016 102.954742,257.015625 
	C103.777924,257.185883 104.042328,257.340973 104.306732,257.496063 
	C103.882011,257.666260 103.457291,257.836487 103.032562,258.006683 
	C102.613312,258.003906 102.194061,258.001129 101.461746,257.999420 
	C101.111740,257.832214 101.074814,257.663940 101.098129,257.244415 
z"/>
<path fill="#63D45E" opacity="1.000000" stroke="none" 
	d="
M265.959229,327.621948 
	C264.557434,327.923187 263.115601,327.856323 261.002289,327.758362 
	C260.660828,321.398407 260.225433,315.268860 260.106812,309.133179 
	C260.087036,308.110168 261.445007,307.060547 262.582550,306.014648 
	C262.061249,313.351349 263.868744,320.319275 265.959229,327.621948 
z"/>
<path fill="#63D45D" opacity="1.000000" stroke="none" 
	d="
M407.031677,392.581421 
	C306.959229,392.942688 206.969147,392.948975 106.516251,392.943481 
	C102.778770,389.699860 102.209854,385.961761 103.838013,381.732605 
	C104.119720,381.000854 104.020660,380.087341 103.965714,379.266602 
	C103.504623,372.379395 103.495369,372.380005 110.935043,373.983032 
	C112.446007,373.660492 113.222946,373.328827 113.999878,372.997131 
	C116.450294,372.666779 118.900574,372.048798 121.351166,372.047577 
	C214.250397,372.001160 307.149628,372.011444 400.586121,372.369568 
	C402.748901,372.813324 404.374481,372.901581 406.000031,372.989868 
	C406.750122,372.989014 407.500214,372.988159 408.788330,373.234741 
	C409.880035,373.658356 410.433746,373.834503 410.987457,374.010620 
	C410.981537,377.411133 410.783905,380.825134 411.022400,384.208405 
	C411.271912,387.748352 410.817993,390.718658 407.031677,392.581421 
z"/>
<path fill="#6CCE67" opacity="1.000000" stroke="none" 
	d="
M405.827698,372.753662 
	C404.374481,372.901581 402.748901,372.813324 401.053772,372.373077 
	C402.541260,372.186523 404.098297,372.351990 405.827698,372.753662 
z"/>
<path fill="#6CCE67" opacity="1.000000" stroke="none" 
	d="
M113.801224,372.742584 
	C113.222946,373.328827 112.446007,373.660492 111.329407,373.988464 
	C111.860695,373.485901 112.731636,372.986969 113.801224,372.742584 
z"/>
<path fill="#6CCE67" opacity="1.000000" stroke="none" 
	d="
M410.961945,373.716553 
	C410.433746,373.834503 409.880035,373.658356 409.163361,373.233276 
	C409.645752,373.130402 410.291077,373.276459 410.961945,373.716553 
z"/>
<path fill="#64D45E" opacity="1.000000" stroke="none" 
	d="
M103.035095,258.411316 
	C103.457291,257.836487 103.882011,257.666260 104.306732,257.496063 
	C104.042328,257.340973 103.777924,257.185883 103.264870,257.015808 
	C103.011795,253.338257 103.163155,249.666946 102.957771,246.015686 
	C102.764366,242.577148 104.297447,241.082703 107.570213,241.032150 
	C108.735336,241.014145 109.900833,241.017883 111.066162,241.017868 
	C208.291031,241.016876 305.515900,241.015945 402.740784,241.017181 
	C410.001099,241.017288 410.005402,241.024719 410.006989,248.046127 
	C410.007965,252.374619 409.993469,256.703094 409.974945,261.495361 
	C408.264801,261.968628 406.565643,261.978119 404.385254,261.652344 
	C402.930206,261.536102 401.956390,261.755127 400.982544,261.974152 
	C303.526520,261.979828 206.070480,261.988342 108.614441,261.974365 
	C106.228989,261.974030 103.287415,262.700592 103.035095,258.411316 
z"/>
<path fill="#6CCE67" opacity="1.000000" stroke="none" 
	d="
M401.361572,261.982086 
	C401.956390,261.755127 402.930206,261.536102 403.959595,261.647888 
	C403.256958,261.982452 402.498779,261.986237 401.361572,261.982086 
z"/>
<path fill="#63D45E" opacity="1.000000" stroke="none" 
	d="
M411.843506,135.984390 
	C411.891327,136.422302 411.939148,136.860229 411.921326,137.622192 
	C409.410675,138.287338 406.965790,138.925400 404.520599,138.926682 
	C307.493805,138.977203 210.466949,138.985916 113.440201,138.900696 
	C110.197189,138.897858 106.955086,137.869675 103.356033,137.160019 
	C103.383324,131.260666 103.767143,125.520737 104.163940,119.586594 
	C106.304306,119.090530 109.070778,118.449356 111.938133,117.428207 
	C208.700363,117.045738 305.361694,117.043251 402.587280,117.421249 
	C405.440796,118.189117 407.730042,118.576492 410.019318,118.963867 
	C410.019318,118.963867 410.510956,118.979057 410.701416,119.401031 
	C411.209076,125.210136 411.526306,130.597260 411.843506,135.984390 
z"/>
<path fill="#73C96F" opacity="1.000000" stroke="none" 
	d="
M411.909119,135.521118 
	C411.526306,130.597260 411.209076,125.210136 410.947144,119.411354 
	C411.002441,118.999695 411.411926,118.992096 411.616699,118.988586 
	C411.872528,124.342667 411.923615,129.700256 411.909119,135.521118 
z"/>
<path fill="#73C96F" opacity="1.000000" stroke="none" 
	d="
M409.931671,118.586044 
	C407.730042,118.576492 405.440796,118.189117 403.052979,117.428986 
	C405.250977,117.440224 407.547485,117.824226 409.931671,118.586044 
z"/>
<path fill="#65D45E" opacity="1.000000" stroke="none" 
	d="
M319.997406,199.510986 
	C250.644882,199.982178 181.294785,199.987076 111.477081,199.991211 
	C110.893875,199.870712 110.798241,199.680481 110.659836,199.641327 
	C103.006012,197.475296 103.005653,197.476562 103.007576,189.035126 
	C103.010086,178.000885 103.010086,177.999756 113.906464,177.999695 
	C180.478531,177.999283 247.050583,177.998886 313.622650,178.000244 
	C319.996155,178.000381 319.997711,178.005936 320.000702,184.565414 
	C320.002869,189.391846 320.000305,194.218277 319.997406,199.510986 
z"/>
</svg>