<svg version="1.1" id="Layer_1" xmlns="http://www.w3.org/2000/svg" xmlns:xlink="http://www.w3.org/1999/xlink" x="0px" y="0px"
	 width="100%" viewBox="0 0 512 512" enable-background="new 0 0 512 512" xml:space="preserve">
<path fill="#000000" opacity="1.000000" stroke="none" 
	d="
M275.000000,513.000000 
	C183.355576,513.000000 92.211151,513.000000 1.033362,513.000000 
	C1.033362,342.397217 1.033362,171.794418 1.033362,1.095816 
	C171.561111,1.095816 342.122284,1.095816 512.841736,1.095816 
	C512.841736,171.666550 512.841736,342.333252 512.841736,513.000000 
	C433.794403,513.000000 354.647186,513.000000 275.000000,513.000000 
M101.072662,263.911713 
	C101.072662,263.911713 101.081047,263.810608 101.338623,264.529449 
	C103.694466,266.300995 106.004387,267.409363 108.929764,263.899078 
	C205.959534,263.885254 302.989288,263.870819 400.019073,263.866272 
	C401.012451,263.866241 402.005798,263.995728 403.171967,264.813873 
	C405.958557,266.377533 408.704437,267.519379 411.370300,263.899445 
	C411.370300,263.899445 411.767365,263.911926 412.499329,263.957397 
	C413.632507,262.773621 415.778442,261.543274 415.726562,260.414032 
	C415.479919,255.049469 414.736847,249.697052 413.937714,244.375290 
	C413.708527,242.848923 412.701141,241.439407 412.024200,240.042679 
	C412.024200,240.042679 411.953705,240.031143 412.022064,239.502213 
	C412.017548,239.324493 412.013031,239.146759 411.815948,238.181213 
	C409.810089,237.787277 407.804413,237.049835 405.798340,237.048706 
	C306.215912,236.992493 206.633453,236.999115 107.050987,237.002151 
	C105.552994,237.002197 103.747002,236.540283 102.647354,237.213272 
	C101.634697,237.832993 101.381317,239.693375 100.947166,241.928711 
	C101.017570,246.950195 101.087975,251.971680 101.037880,257.495697 
	C101.074814,257.663940 101.111740,257.832214 100.989746,258.655396 
	C100.930328,259.099823 100.870911,259.544281 100.131813,260.007660 
	C99.535744,260.403076 98.939674,260.798492 98.343620,261.193939 
	C99.285873,262.090759 100.228127,262.987549 101.072662,263.911713 
M412.498169,114.996864 
	C412.331299,114.998421 412.164429,114.999977 411.060547,114.999695 
	C309.968079,114.998711 208.875641,114.993111 107.783203,115.031380 
	C105.860115,115.032112 103.937218,115.551117 101.570663,115.969536 
	C101.570663,115.969536 101.108467,116.025055 100.522743,116.369850 
	C99.881088,117.962006 97.258408,119.675850 100.947746,121.856377 
	C100.903870,123.567818 100.859985,125.279251 100.132980,127.154510 
	C100.360329,128.773544 100.587677,130.392563 100.948868,132.845779 
	C101.015327,134.250473 101.081779,135.655167 100.986572,137.001633 
	C100.986572,137.001633 100.817108,136.973206 100.382759,137.411484 
	C100.622902,138.264862 100.863045,139.118225 101.556396,140.038635 
	C101.556396,140.038635 101.989105,140.189148 102.199211,140.928391 
	C107.814423,141.285828 113.429428,141.950851 119.044884,141.954819 
	C210.677795,142.019592 302.310760,141.996445 393.943726,142.027374 
	C396.079224,142.028091 398.273926,142.841812 400.337311,142.547974 
	C404.255371,141.990021 408.782654,143.837570 411.967194,139.974152 
	C411.967194,139.974152 411.924713,139.958481 412.713867,139.830490 
	C413.360626,137.083435 414.597412,134.321869 414.530212,131.592407 
	C414.393860,126.052925 413.552185,120.530807 413.570007,114.930939 
	C413.892700,114.625977 414.215393,114.321007 414.538116,114.016060 
	C414.328735,113.833984 414.119385,113.651917 413.910004,113.469841 
	C413.606262,113.979385 413.302521,114.488930 412.498169,114.996864 
M105.856758,201.042038 
	C107.562119,200.977066 109.267479,200.912094 111.904510,200.991562 
	C180.069839,201.000076 248.235184,201.015137 316.400482,200.973648 
	C317.879578,200.972748 319.358276,200.323395 320.977753,199.051697 
	C320.988037,195.923523 321.127716,192.789093 320.977264,189.668671 
	C320.769043,185.351501 320.342407,181.044891 319.339294,176.253754 
	C318.351196,176.167480 317.363098,176.005875 316.375000,176.005692 
	C250.014526,175.993805 183.654053,175.990265 117.293587,176.025864 
	C115.857933,176.026642 114.422516,176.489212 112.065865,176.835022 
	C108.489487,176.835022 104.913116,176.835022 100.975014,176.835022 
	C100.975014,180.936554 100.839821,184.381927 101.008957,187.812286 
	C101.224373,192.181152 101.686028,196.537857 102.098000,201.570221 
	C103.069717,201.439285 104.041443,201.308334 105.856758,201.042038 
M100.989067,392.030884 
	C100.989067,392.030884 101.149452,391.951263 101.015381,392.610840 
	C101.342239,393.129395 101.669098,393.647919 102.110596,394.797913 
	C103.077225,394.593323 104.043854,394.388733 105.798607,394.051697 
	C106.860092,394.098694 107.921570,394.145691 109.015137,394.916260 
	C111.261261,398.666351 112.775467,397.374420 114.941330,394.053741 
	C209.293045,394.044861 303.644745,394.035492 397.996460,394.034027 
	C398.991394,394.033997 399.986328,394.137299 401.015747,394.922546 
	C401.718689,395.590790 402.421600,396.259033 403.124542,396.927277 
	C403.755463,396.015778 404.386383,395.104279 405.753845,394.057434 
	C406.498566,394.101257 407.243256,394.145081 408.170349,394.897125 
	C411.288605,397.066589 413.643677,396.501984 413.962158,392.573761 
	C414.356140,387.714233 414.270660,382.801636 414.132812,377.919312 
	C414.067444,375.604736 413.399567,373.307159 412.824432,370.206207 
	C411.159088,369.800690 409.493927,369.041199 407.828369,369.040283 
	C307.269257,368.984833 206.710144,368.986145 106.151024,369.040100 
	C104.458572,369.041016 102.766487,369.752502 100.995636,370.940399 
	C100.934616,372.289307 100.873596,373.638214 100.255432,375.083923 
	C99.966347,375.405426 99.677269,375.726959 99.388191,376.048523 
	C99.866661,376.369049 100.345131,376.689606 100.950539,377.922272 
	C100.904411,381.610046 100.858284,385.297791 100.184074,389.110107 
	C100.393799,390.095001 100.603523,391.079895 100.989067,392.030884 
M258.297760,305.283264 
	C258.297760,313.036896 258.297760,320.790497 258.297760,329.014679 
	C260.054840,329.014679 261.671753,329.014832 263.288666,329.014679 
	C281.245758,329.012909 299.202911,329.029663 317.159973,329.004944 
	C345.089691,328.966492 373.019379,328.899902 401.745667,328.990692 
	C410.032532,327.033813 410.047455,327.033752 410.012207,318.927368 
	C409.993469,314.619080 409.912384,310.311035 409.897369,305.435089 
	C409.593323,305.224670 409.289276,305.014282 408.333710,304.301453 
	C407.681519,304.205139 407.029388,304.024689 406.377167,304.024475 
	C358.526459,304.010284 310.675720,304.004242 262.825043,304.043152 
	C261.569061,304.044159 260.313507,304.547089 258.297760,305.283264 
M409.078979,176.846298 
	C386.537262,176.846298 363.995575,176.846298 341.176239,176.846298 
	C341.176239,184.812302 341.176239,192.397827 341.076080,200.531616 
	C341.388214,200.615173 341.700378,200.698730 342.939850,200.914978 
	C365.287231,200.860901 387.634613,200.806824 410.504272,200.885880 
	C410.582428,200.585815 410.660583,200.285751 410.905212,199.063599 
	C410.864105,192.048019 410.822998,185.032455 410.924652,177.456543 
	C410.614471,177.324203 410.304321,177.191864 409.078979,176.846298 
M145.500015,304.928619 
	C130.753738,304.928619 116.007454,304.928619 101.245972,304.928619 
	C101.245972,313.234131 101.245972,320.967773 101.245972,328.641357 
	C146.636673,328.641357 191.779785,328.641357 236.671173,328.641357 
	C236.671173,320.537659 236.671173,312.794250 236.671173,304.928619 
	C206.395172,304.928619 176.447601,304.928619 145.500015,304.928619 
z"/>
<path fill="#FFFFFF" opacity="1.000000" stroke="none" 
	d="
M146.000031,304.928619 
	C176.447601,304.928619 206.395172,304.928619 236.671173,304.928619 
	C236.671173,312.794250 236.671173,320.537659 236.671173,328.641357 
	C191.779785,328.641357 146.636673,328.641357 101.245972,328.641357 
	C101.245972,320.967773 101.245972,313.234131 101.245972,304.928619 
	C116.007454,304.928619 130.753738,304.928619 146.000031,304.928619 
z"/>
<path fill="#65D45E" opacity="1.000000" stroke="none" 
	d="
M409.859436,306.002899 
	C409.912384,310.311035 409.993469,314.619080 410.012207,318.927368 
	C410.047455,327.033752 410.032532,327.033813 401.035248,328.652588 
	C398.507263,328.212097 396.689728,328.021240 394.872101,328.020294 
	C351.914490,327.997833 308.956848,327.995819 265.959229,327.621948 
	C263.868744,320.319275 262.061249,313.351349 263.467529,306.006592 
	C312.577301,306.005707 361.218384,306.004303 409.859436,306.002899 
z"/>
<path fill="#FFFFFF" opacity="1.000000" stroke="none" 
	d="
M341.176239,199.983353 
	C341.176239,192.397827 341.176239,184.812302 341.176239,176.846298 
	C363.995575,176.846298 386.537262,176.846298 409.607208,177.157623 
	C410.274811,177.741379 410.490295,177.924026 410.781891,178.016876 
	C410.822998,185.032455 410.864105,192.048019 410.633789,199.578323 
	C410.128632,200.251282 410.001862,200.471176 409.981995,200.752747 
	C387.634613,200.806824 365.287231,200.860901 342.395569,200.662903 
	C341.673462,200.193802 341.448456,200.051315 341.176239,199.983353 
z"/>
<path fill="#73C96F" opacity="1.000000" stroke="none" 
	d="
M100.812576,374.987122 
	C100.873596,373.638214 100.934616,372.289307 101.495956,370.497620 
	C204.008636,370.034698 306.020996,370.010620 408.033356,370.036011 
	C409.408600,370.036346 410.783752,370.661499 412.093140,371.460938 
	C411.959991,378.943146 411.892609,385.959473 411.418945,392.979126 
	C409.658234,392.967102 408.303772,392.951752 407.031677,392.581421 
	C410.817993,390.718658 411.271912,387.748352 411.022400,384.208405 
	C410.783905,380.825134 410.981537,377.411133 410.961945,373.716553 
	C410.291077,373.276459 409.645752,373.130402 408.625366,372.985840 
	C407.500214,372.988159 406.750122,372.989014 405.827698,372.753662 
	C404.098297,372.351990 402.541260,372.186523 400.516541,372.017578 
	C307.149628,372.011444 214.250397,372.001160 121.351166,372.047577 
	C118.900574,372.048798 116.450294,372.666779 113.801224,372.742554 
	C112.731636,372.986969 111.860695,373.485901 110.595383,373.979370 
	C103.495369,372.380005 103.504623,372.379395 103.965714,379.266602 
	C104.020660,380.087341 104.119720,381.000854 103.838013,381.732605 
	C102.209854,385.961761 102.778770,389.699860 105.690285,392.946960 
	C103.934555,392.625214 102.542000,392.288239 101.149445,391.951294 
	C101.149452,391.951263 100.989067,392.030884 100.974770,391.666382 
	C100.911034,390.529785 100.861588,389.757690 100.812149,388.985565 
	C100.858284,385.297791 100.904411,381.610046 100.962036,377.131775 
	C100.919884,375.889923 100.866226,375.438507 100.812576,374.987122 
z"/>
<path fill="#000E00" opacity="1.000000" stroke="none" 
	d="
M100.793480,241.007248 
	C101.381317,239.693375 101.634697,237.832993 102.647354,237.213272 
	C103.747002,236.540283 105.552994,237.002197 107.050987,237.002151 
	C206.633453,236.999115 306.215912,236.992493 405.798340,237.048706 
	C407.804413,237.049835 409.810089,237.787277 411.442810,238.587036 
	C310.823853,238.996368 210.578079,238.995453 110.332306,239.033524 
	C108.226082,239.034332 106.120026,239.485184 103.646317,239.768692 
	C102.450317,240.209946 101.621895,240.608597 100.793480,241.007248 
z"/>
<path fill="#000E00" opacity="1.000000" stroke="none" 
	d="
M411.947693,139.931641 
	C408.782654,143.837570 404.255371,141.990021 400.337311,142.547974 
	C398.273926,142.841812 396.079224,142.028091 393.943726,142.027374 
	C302.310760,141.996445 210.677795,142.019592 119.044884,141.954819 
	C113.429428,141.950851 107.814423,141.285828 102.558891,140.486694 
	C142.691528,140.031189 182.464478,140.018051 222.237427,140.003357 
	C285.474182,139.979996 348.710938,139.955597 411.947693,139.931641 
z"/>
<path fill="#73C96F" opacity="1.000000" stroke="none" 
	d="
M402.999176,264.064758 
	C402.005798,263.995728 401.012451,263.866241 400.019073,263.866272 
	C302.989288,263.870819 205.959534,263.885254 108.042206,263.890045 
	C105.130119,263.857544 103.105583,263.834076 101.081047,263.810608 
	C101.081047,263.810608 101.072662,263.911713 101.075790,263.509216 
	C100.989777,262.067383 100.900635,261.028046 100.811493,259.988708 
	C100.870911,259.544281 100.930328,259.099823 101.382278,258.326874 
	C102.194061,258.001129 102.613312,258.003906 103.035095,258.411316 
	C103.287415,262.700592 106.228989,261.974030 108.614441,261.974365 
	C206.070480,261.988342 303.526520,261.979828 401.361572,261.982086 
	C402.498779,261.986237 403.256958,261.982452 404.440796,261.983154 
	C406.565643,261.978119 408.264801,261.968628 409.851135,262.193481 
	C409.162109,262.810486 408.585938,263.193237 407.600525,263.676025 
	C405.793915,263.872314 404.396545,263.968536 402.999176,264.064758 
z"/>
<path fill="#77C478" opacity="1.000000" stroke="none" 
	d="
M408.009766,263.575989 
	C408.585938,263.193237 409.162109,262.810486 409.862122,261.729675 
	C409.993469,256.703094 410.007965,252.374619 410.006989,248.046127 
	C410.005402,241.024719 410.001099,241.017288 402.740784,241.017181 
	C305.515900,241.015945 208.291031,241.016876 111.066162,241.017868 
	C109.900833,241.017883 108.735336,241.014145 107.570213,241.032150 
	C104.297447,241.082703 102.764366,242.577148 102.957771,246.015686 
	C103.163155,249.666946 103.011795,253.338257 102.706093,257.000641 
	C101.983437,256.998016 101.570908,256.995575 101.158379,256.993164 
	C101.087975,251.971680 101.017570,246.950195 100.870323,241.467987 
	C101.621895,240.608597 102.450317,240.209946 104.101784,239.880051 
	C106.754997,239.965012 108.585175,239.995209 110.415344,239.995453 
	C210.928131,240.008942 311.440918,240.019913 411.953705,240.031143 
	C411.953705,240.031143 412.024200,240.042679 412.023376,240.479675 
	C411.937469,248.581741 411.852417,256.246826 411.767334,263.911926 
	C411.767365,263.911926 411.370300,263.899445 410.817902,263.885437 
	C409.513580,263.772919 408.761688,263.674438 408.009766,263.575989 
z"/>
<path fill="#73C96F" opacity="1.000000" stroke="none" 
	d="
M409.878418,305.718994 
	C361.218384,306.004303 312.577301,306.005707 263.051270,306.015137 
	C261.445007,307.060547 260.087036,308.110168 260.106812,309.133179 
	C260.225433,315.268860 260.660828,321.398407 261.002289,327.758362 
	C263.115601,327.856323 264.557434,327.923187 265.999237,327.990021 
	C308.956848,327.995819 351.914490,327.997833 394.872101,328.020294 
	C396.689728,328.021240 398.507263,328.212097 400.636963,328.579834 
	C373.019379,328.899902 345.089691,328.966492 317.159973,329.004944 
	C299.202911,329.029663 281.245758,329.012909 263.288666,329.014679 
	C261.671753,329.014832 260.054840,329.014679 258.297760,329.014679 
	C258.297760,320.790497 258.297760,313.036896 259.134827,305.126038 
	C300.344299,304.982239 340.716736,305.008698 381.089172,304.999390 
	C390.387848,304.997253 399.686554,304.872314 408.985229,304.803864 
	C409.289276,305.014282 409.593323,305.224670 409.878418,305.718994 
z"/>
<path fill="#7FC07C" opacity="1.000000" stroke="none" 
	d="
M411.957458,139.952896 
	C348.710938,139.955597 285.474182,139.979996 222.237427,140.003357 
	C182.464478,140.018051 142.691528,140.031189 102.453842,140.117081 
	C101.989105,140.189148 101.556396,140.038635 101.280426,139.630798 
	C100.942001,138.473038 100.879555,137.723129 100.817108,136.973206 
	C100.817108,136.973206 100.986572,137.001633 101.375732,137.014709 
	C102.176430,137.018738 102.587967,137.009674 103.356033,137.160019 
	C106.955086,137.869675 110.197189,138.897858 113.440201,138.900696 
	C210.466949,138.985916 307.493805,138.977203 404.520599,138.926682 
	C406.965790,138.925400 409.410675,138.287338 411.918243,138.278198 
	C411.962097,139.059586 411.943420,139.509033 411.924713,139.958481 
	C411.924713,139.958481 411.967194,139.974152 411.957458,139.952896 
z"/>
<path fill="#7FC07C" opacity="1.000000" stroke="none" 
	d="
M101.108467,116.025055 
	C101.108467,116.025055 101.570663,115.969536 102.254799,115.974045 
	C203.111618,115.986320 303.284302,115.993179 403.457001,116.006493 
	C406.284424,116.006866 409.111847,116.076012 411.965454,116.473343 
	C411.934937,117.550758 411.878174,118.267921 411.616699,118.988586 
	C411.411926,118.992096 411.002441,118.999695 410.756714,118.989380 
	C410.510956,118.979057 410.019318,118.963867 409.931671,118.586044 
	C407.547485,117.824226 405.250977,117.440224 402.488739,117.048492 
	C305.361694,117.043251 208.700363,117.045738 111.598495,117.033974 
	C107.826859,117.344254 104.495743,117.668800 101.095497,117.669235 
	C101.053734,116.905106 101.081100,116.465080 101.108467,116.025055 
z"/>
<path fill="#002B00" opacity="1.000000" stroke="none" 
	d="
M412.158936,370.995026 
	C410.783752,370.661499 409.408600,370.036346 408.033356,370.036011 
	C306.020996,370.010620 204.008636,370.034698 101.535248,370.093597 
	C102.766487,369.752502 104.458572,369.041016 106.151024,369.040100 
	C206.710144,368.986145 307.269257,368.984833 407.828369,369.040283 
	C409.493927,369.041199 411.159088,369.800690 412.703064,370.601746 
	C412.581726,370.997284 412.158936,370.995026 412.158936,370.995026 
z"/>
<path fill="#7FC07C" opacity="1.000000" stroke="none" 
	d="
M101.082413,392.281067 
	C102.542000,392.288239 103.934555,392.625214 106.153076,392.958740 
	C206.969147,392.948975 306.959229,392.942688 406.949341,392.936401 
	C408.303772,392.951752 409.658234,392.967102 411.326172,393.338745 
	C410.422455,393.859650 409.205231,394.024292 407.987976,394.188934 
	C407.243256,394.145081 406.498566,394.101257 404.986053,394.049744 
	C403.139252,394.092163 402.060272,394.142242 400.981262,394.192383 
	C399.986328,394.137299 398.991394,394.033997 397.996460,394.034027 
	C303.644745,394.035492 209.293045,394.044861 114.063156,394.047058 
	C111.784340,394.091125 110.383698,394.141907 108.983055,394.192688 
	C107.921570,394.145691 106.860092,394.098694 105.030975,394.048615 
	C103.507545,394.085846 102.751747,394.126160 101.995956,394.166473 
	C101.669098,393.647919 101.342239,393.129395 101.082413,392.281067 
z"/>
<path fill="#002B00" opacity="1.000000" stroke="none" 
	d="
M411.939270,116.113098 
	C409.111847,116.076012 406.284424,116.006866 403.457001,116.006493 
	C303.284302,115.993179 203.111618,115.986320 102.476585,115.903435 
	C103.937218,115.551117 105.860115,115.032112 107.783203,115.031380 
	C208.875641,114.993111 309.968079,114.998711 411.520630,115.278816 
	C411.966888,115.742989 411.953094,115.928047 411.939270,116.113098 
z"/>
<path fill="#0E400D" opacity="1.000000" stroke="none" 
	d="
M411.987885,239.766678 
	C311.440918,240.019913 210.928131,240.008942 110.415344,239.995453 
	C108.585175,239.995209 106.754997,239.965012 104.469360,239.837448 
	C106.120026,239.485184 108.226082,239.034332 110.332306,239.033524 
	C210.578079,238.995453 310.823853,238.996368 411.539062,238.980942 
	C412.013031,239.146759 412.017548,239.324493 411.987885,239.766678 
z"/>
<path fill="#73C96F" opacity="1.000000" stroke="none" 
	d="
M320.009277,176.733749 
	C320.342407,181.044891 320.769043,185.351501 320.977264,189.668671 
	C321.127716,192.789093 320.988037,195.923523 320.696899,199.516510 
	C320.416077,199.981339 319.994965,199.977264 319.997406,199.510986 
	C320.000305,194.218277 320.002869,189.391846 320.000702,184.565414 
	C319.997711,178.005936 319.996155,178.000381 313.622650,178.000244 
	C247.050583,177.998886 180.478531,177.999283 113.906464,177.999695 
	C103.010086,177.999756 103.010086,178.000885 103.007576,189.035126 
	C103.005653,197.476562 103.006012,197.475296 110.659836,199.641327 
	C110.798241,199.680481 110.893875,199.870712 111.001450,200.204666 
	C110.993439,200.418884 110.972839,200.847122 110.972839,200.847122 
	C109.267479,200.912094 107.562119,200.977066 105.068268,201.035187 
	C103.533699,200.985504 102.787621,200.942657 102.041542,200.899811 
	C101.686028,196.537857 101.224373,192.181152 101.008957,187.812286 
	C100.839821,184.381927 100.975014,180.936554 100.975014,176.835022 
	C104.913116,176.835022 108.489487,176.835022 112.986008,176.889389 
	C181.783676,176.961411 249.661194,176.980011 317.538727,176.985809 
	C318.362244,176.985870 319.185760,176.821411 320.009277,176.733749 
z"/>
<path fill="#60B65F" opacity="1.000000" stroke="none" 
	d="
M111.438675,200.919342 
	C110.972839,200.847122 110.993439,200.418884 111.469070,200.205429 
	C181.294785,199.987076 250.644882,199.982178 319.994965,199.977264 
	C319.994965,199.977264 320.416077,199.981339 320.626617,199.978943 
	C319.358276,200.323395 317.879578,200.972748 316.400482,200.973648 
	C248.235184,201.015137 180.069839,201.000076 111.438675,200.919342 
z"/>
<path fill="#13380F" opacity="1.000000" stroke="none" 
	d="
M319.674286,176.493744 
	C319.185760,176.821411 318.362244,176.985870 317.538727,176.985809 
	C249.661194,176.980011 181.783676,176.961411 113.446571,176.840057 
	C114.422516,176.489212 115.857933,176.026642 117.293587,176.025864 
	C183.654053,175.990265 250.014526,175.993805 316.375000,176.005692 
	C317.363098,176.005875 318.351196,176.167480 319.674286,176.493744 
z"/>
<path fill="#002B00" opacity="1.000000" stroke="none" 
	d="
M408.659485,304.552673 
	C399.686554,304.872314 390.387848,304.997253 381.089172,304.999390 
	C340.716736,305.008698 300.344299,304.982239 259.514801,304.892365 
	C260.313507,304.547089 261.569061,304.044159 262.825043,304.043152 
	C310.675720,304.004242 358.526459,304.010284 406.377167,304.024475 
	C407.029388,304.024689 407.681519,304.205139 408.659485,304.552673 
z"/>
<path fill="#73C96F" opacity="1.000000" stroke="none" 
	d="
M101.164627,117.993340 
	C104.495743,117.668800 107.826859,117.344254 111.497612,117.413956 
	C109.070778,118.449356 106.304306,119.090530 104.163940,119.586594 
	C103.767143,125.520737 103.383324,131.260666 102.999512,137.000610 
	C102.587967,137.009674 102.176430,137.018738 101.456558,137.043823 
	C101.081779,135.655167 101.015327,134.250473 100.957085,132.014618 
	C100.915565,129.785858 100.865837,128.388275 100.816101,126.990692 
	C100.859985,125.279251 100.903870,123.567818 100.950310,121.059753 
	C101.023460,119.506538 101.094040,118.749939 101.164627,117.993340 
z"/>
<path fill="#000E00" opacity="1.000000" stroke="none" 
	d="
M408.079163,394.543030 
	C409.205231,394.024292 410.422455,393.859650 411.732483,393.335388 
	C411.892609,385.959473 411.959991,378.943146 412.093140,371.460938 
	C412.158936,370.995026 412.581726,370.997284 412.793182,370.999573 
	C413.399567,373.307159 414.067444,375.604736 414.132812,377.919312 
	C414.270660,382.801636 414.356140,387.714233 413.962158,392.573761 
	C413.643677,396.501984 411.288605,397.066589 408.079163,394.543030 
z"/>
<path fill="#000E00" opacity="1.000000" stroke="none" 
	d="
M412.133331,263.934662 
	C411.852417,256.246826 411.937469,248.581741 412.036560,240.446487 
	C412.701141,241.439407 413.708527,242.848923 413.937714,244.375290 
	C414.736847,249.697052 415.479919,255.049469 415.726562,260.414032 
	C415.778442,261.543274 413.632507,262.773621 412.133331,263.934662 
z"/>
<path fill="#000E00" opacity="1.000000" stroke="none" 
	d="
M411.965454,116.473343 
	C411.953094,115.928047 411.966888,115.742989 411.989136,115.279732 
	C412.164429,114.999977 412.331299,114.998421 412.749084,114.998428 
	C413.000000,115.000000 413.001221,115.001526 413.001221,115.001526 
	C413.552185,120.530807 414.393860,126.052925 414.530212,131.592407 
	C414.597412,134.321869 413.360626,137.083435 412.319275,139.894485 
	C411.943420,139.509033 411.962097,139.059586 411.983887,137.954132 
	C411.939148,136.860229 411.891327,136.422302 411.909119,135.521118 
	C411.923615,129.700256 411.872528,124.342667 411.821442,118.985085 
	C411.878174,118.267921 411.934937,117.550758 411.965454,116.473343 
z"/>
<path fill="#000E00" opacity="1.000000" stroke="none" 
	d="
M407.600525,263.676025 
	C408.761688,263.674438 409.513580,263.772919 410.635681,263.964478 
	C408.704437,267.519379 405.958557,266.377533 403.085571,264.439331 
	C404.396545,263.968536 405.793915,263.872314 407.600525,263.676025 
z"/>
<path fill="#000E00" opacity="1.000000" stroke="none" 
	d="
M108.999100,394.554474 
	C110.383698,394.141907 111.784340,394.091125 113.599998,394.115417 
	C112.775467,397.374420 111.261261,398.666351 108.999100,394.554474 
z"/>
<path fill="#000E00" opacity="1.000000" stroke="none" 
	d="
M101.209839,264.170013 
	C103.105583,263.834076 105.130119,263.857544 107.580383,263.974365 
	C106.004387,267.409363 103.694466,266.300995 101.209839,264.170013 
z"/>
<path fill="#000E00" opacity="1.000000" stroke="none" 
	d="
M400.998505,394.557434 
	C402.060272,394.142242 403.139252,394.092163 404.617798,394.117432 
	C404.386383,395.104279 403.755463,396.015778 403.124542,396.927277 
	C402.421600,396.259033 401.718689,395.590790 400.998505,394.557434 
z"/>
<path fill="#000E00" opacity="1.000000" stroke="none" 
	d="
M100.471649,259.998169 
	C100.900635,261.028046 100.989777,262.067383 101.124649,263.495544 
	C100.228127,262.987549 99.285873,262.090759 98.343613,261.193909 
	C98.939674,260.798492 99.535744,260.403076 100.471649,259.998169 
z"/>
<path fill="#000E00" opacity="1.000000" stroke="none" 
	d="
M100.474548,127.072601 
	C100.865837,128.388275 100.915565,129.785858 100.890167,131.597519 
	C100.587677,130.392563 100.360329,128.773544 100.474548,127.072601 
z"/>
<path fill="#000E00" opacity="1.000000" stroke="none" 
	d="
M101.095497,117.669235 
	C101.094040,118.749939 101.023460,119.506538 100.880341,120.636856 
	C97.258408,119.675850 99.881088,117.962006 100.815605,116.197449 
	C101.081100,116.465080 101.053734,116.905106 101.095497,117.669235 
z"/>
<path fill="#000E00" opacity="1.000000" stroke="none" 
	d="
M102.069771,201.235016 
	C102.787621,200.942657 103.533699,200.985504 104.646469,201.102875 
	C104.041443,201.308334 103.069717,201.439285 102.069771,201.235016 
z"/>
<path fill="#000E00" opacity="1.000000" stroke="none" 
	d="
M102.053276,394.482178 
	C102.751747,394.126160 103.507545,394.085846 104.636909,394.114868 
	C104.043854,394.388733 103.077225,394.593323 102.053276,394.482178 
z"/>
<path fill="#000E00" opacity="1.000000" stroke="none" 
	d="
M100.498108,389.047852 
	C100.861588,389.757690 100.911034,390.529785 100.886856,391.683350 
	C100.603523,391.079895 100.393799,390.095001 100.498108,389.047852 
z"/>
<path fill="#000E00" opacity="1.000000" stroke="none" 
	d="
M412.999390,114.999237 
	C413.302521,114.488930 413.606262,113.979385 413.910004,113.469849 
	C414.119385,113.651917 414.328735,113.833984 414.538116,114.016052 
	C414.215393,114.321007 413.892700,114.625977 413.285614,114.966232 
	C413.001221,115.001526 413.000000,115.000000 412.999390,114.999237 
z"/>
<path fill="#000E00" opacity="1.000000" stroke="none" 
	d="
M100.534004,375.035522 
	C100.866226,375.438507 100.919884,375.889923 100.898567,376.675720 
	C100.345131,376.689606 99.866661,376.369049 99.388191,376.048523 
	C99.677269,375.726959 99.966347,375.405426 100.534004,375.035522 
z"/>
<path fill="#6CCE67" opacity="1.000000" stroke="none" 
	d="
M101.098129,257.244415 
	C101.570908,256.995575 101.983437,256.998016 102.954742,257.015625 
	C103.777924,257.185883 104.042328,257.340973 104.306732,257.496063 
	C103.882011,257.666260 103.457291,257.836487 103.032562,258.006683 
	C102.613312,258.003906 102.194061,258.001129 101.461746,257.999420 
	C101.111740,257.832214 101.074814,257.663940 101.098129,257.244415 
z"/>
<path fill="#000E00" opacity="1.000000" stroke="none" 
	d="
M100.599930,137.192352 
	C100.879555,137.723129 100.942001,138.473038 101.053818,139.597290 
	C100.863045,139.118225 100.622902,138.264862 100.599930,137.192352 
z"/>
<path fill="#DEDEDE" opacity="1.000000" stroke="none" 
	d="
M410.853271,177.736710 
	C410.490295,177.924026 410.274811,177.741379 410.064789,177.264252 
	C410.304321,177.191864 410.614471,177.324203 410.853271,177.736710 
z"/>
<path fill="#DEDEDE" opacity="1.000000" stroke="none" 
	d="
M341.126160,200.257477 
	C341.448456,200.051315 341.673462,200.193802 341.931885,200.596558 
	C341.700378,200.698730 341.388214,200.615173 341.126160,200.257477 
z"/>
<path fill="#DEDEDE" opacity="1.000000" stroke="none" 
	d="
M410.243134,200.819305 
	C410.001862,200.471176 410.128632,200.251282 410.550537,200.039368 
	C410.660583,200.285751 410.582428,200.585815 410.243134,200.819305 
z"/>
<path fill="#63D45E" opacity="1.000000" stroke="none" 
	d="
M265.959229,327.621948 
	C264.557434,327.923187 263.115601,327.856323 261.002289,327.758362 
	C260.660828,321.398407 260.225433,315.268860 260.106812,309.133179 
	C260.087036,308.110168 261.445007,307.060547 262.582550,306.014648 
	C262.061249,313.351349 263.868744,320.319275 265.959229,327.621948 
z"/>
<path fill="#63D45D" opacity="1.000000" stroke="none" 
	d="
M407.031677,392.581421 
	C306.959229,392.942688 206.969147,392.948975 106.516251,392.943481 
	C102.778770,389.699860 102.209854,385.961761 103.838013,381.732605 
	C104.119720,381.000854 104.020660,380.087341 103.965714,379.266602 
	C103.504623,372.379395 103.495369,372.380005 110.935043,373.983032 
	C112.446007,373.660492 113.222946,373.328827 113.999878,372.997131 
	C116.450294,372.666779 118.900574,372.048798 121.351166,372.047577 
	C214.250397,372.001160 307.149628,372.011444 400.586121,372.369568 
	C402.748901,372.813324 404.374481,372.901581 406.000031,372.989868 
	C406.750122,372.989014 407.500214,372.988159 408.788330,373.234741 
	C409.880035,373.658356 410.433746,373.834503 410.987457,374.010620 
	C410.981537,377.411133 410.783905,380.825134 411.022400,384.208405 
	C411.271912,387.748352 410.817993,390.718658 407.031677,392.581421 
z"/>
<path fill="#6CCE67" opacity="1.000000" stroke="none" 
	d="
M405.827698,372.753662 
	C404.374481,372.901581 402.748901,372.813324 401.053772,372.373077 
	C402.541260,372.186523 404.098297,372.351990 405.827698,372.753662 
z"/>
<path fill="#6CCE67" opacity="1.000000" stroke="none" 
	d="
M113.801224,372.742584 
	C113.222946,373.328827 112.446007,373.660492 111.329407,373.988464 
	C111.860695,373.485901 112.731636,372.986969 113.801224,372.742584 
z"/>
<path fill="#6CCE67" opacity="1.000000" stroke="none" 
	d="
M410.961945,373.716553 
	C410.433746,373.834503 409.880035,373.658356 409.163361,373.233276 
	C409.645752,373.130402 410.291077,373.276459 410.961945,373.716553 
z"/>
<path fill="#64D45E" opacity="1.000000" stroke="none" 
	d="
M103.035095,258.411316 
	C103.457291,257.836487 103.882011,257.666260 104.306732,257.496063 
	C104.042328,257.340973 103.777924,257.185883 103.264870,257.015808 
	C103.011795,253.338257 103.163155,249.666946 102.957771,246.015686 
	C102.764366,242.577148 104.297447,241.082703 107.570213,241.032150 
	C108.735336,241.014145 109.900833,241.017883 111.066162,241.017868 
	C208.291031,241.016876 305.515900,241.015945 402.740784,241.017181 
	C410.001099,241.017288 410.005402,241.024719 410.006989,248.046127 
	C410.007965,252.374619 409.993469,256.703094 409.974945,261.495361 
	C408.264801,261.968628 406.565643,261.978119 404.385254,261.652344 
	C402.930206,261.536102 401.956390,261.755127 400.982544,261.974152 
	C303.526520,261.979828 206.070480,261.988342 108.614441,261.974365 
	C106.228989,261.974030 103.287415,262.700592 103.035095,258.411316 
z"/>
<path fill="#6CCE67" opacity="1.000000" stroke="none" 
	d="
M401.361572,261.982086 
	C401.956390,261.755127 402.930206,261.536102 403.959595,261.647888 
	C403.256958,261.982452 402.498779,261.986237 401.361572,261.982086 
z"/>
<path fill="#63D45E" opacity="1.000000" stroke="none" 
	d="
M411.843506,135.984390 
	C411.891327,136.422302 411.939148,136.860229 411.921326,137.622192 
	C409.410675,138.287338 406.965790,138.925400 404.520599,138.926682 
	C307.493805,138.977203 210.466949,138.985916 113.440201,138.900696 
	C110.197189,138.897858 106.955086,137.869675 103.356033,137.160019 
	C103.383324,131.260666 103.767143,125.520737 104.163940,119.586594 
	C106.304306,119.090530 109.070778,118.449356 111.938133,117.428207 
	C208.700363,117.045738 305.361694,117.043251 402.587280,117.421249 
	C405.440796,118.189117 407.730042,118.576492 410.019318,118.963867 
	C410.019318,118.963867 410.510956,118.979057 410.701416,119.401031 
	C411.209076,125.210136 411.526306,130.597260 411.843506,135.984390 
z"/>
<path fill="#73C96F" opacity="1.000000" stroke="none" 
	d="
M411.909119,135.521118 
	C411.526306,130.597260 411.209076,125.210136 410.947144,119.411354 
	C411.002441,118.999695 411.411926,118.992096 411.616699,118.988586 
	C411.872528,124.342667 411.923615,129.700256 411.909119,135.521118 
z"/>
<path fill="#73C96F" opacity="1.000000" stroke="none" 
	d="
M409.931671,118.586044 
	C407.730042,118.576492 405.440796,118.189117 403.052979,117.428986 
	C405.250977,117.440224 407.547485,117.824226 409.931671,118.586044 
z"/>
<path fill="#65D45E" opacity="1.000000" stroke="none" 
	d="
M319.997406,199.510986 
	C250.644882,199.982178 181.294785,199.987076 111.477081,199.991211 
	C110.893875,199.870712 110.798241,199.680481 110.659836,199.641327 
	C103.006012,197.475296 103.005653,197.476562 103.007576,189.035126 
	C103.010086,178.000885 103.010086,177.999756 113.906464,177.999695 
	C180.478531,177.999283 247.050583,177.998886 313.622650,178.000244 
	C319.996155,178.000381 319.997711,178.005936 320.000702,184.565414 
	C320.002869,189.391846 320.000305,194.218277 319.997406,199.510986 
z"/>
</svg>